<svg width="804" height="255" viewBox="0 0 804 255" fill="none" xmlns="http://www.w3.org/2000/svg">
<g filter="url(#filter0_d)">
<line x1="108" y1="246.5" x2="800" y2="246.5" stroke="#E6E6E6"/>
</g>
<g clip-path="url(#clip0)" filter="url(#filter1_d)">
<path d="M210.88 245.113H129.684V244.448H211L210.88 245.113Z" fill="#3F3D56"/>
<path d="M162.723 232.082H158.313V241.556H162.723V232.082Z" fill="#FBBEBE"/>
<path d="M197.062 232.397H192.651V241.872H197.062V232.397Z" fill="#FBBEBE"/>
<path d="M197.534 236.977L192.179 236.345L178.317 172.235L163.196 236.661L157.84 236.029C156.956 206.878 159.539 177.714 161.778 153.444L193.754 150.76C199.779 174.676 200.026 204.44 197.534 236.977Z" fill="#2F2E41"/>
<path d="M194.209 154.553C194.209 154.553 186.761 162.344 190.971 164.291C195.18 166.239 197.771 155.527 197.771 155.527L194.209 154.553Z" fill="#FBBEBE"/>
<path d="M156.09 155.185C156.09 155.185 148.642 162.975 152.852 164.923C157.061 166.871 159.652 156.158 159.652 156.158L156.09 155.185Z" fill="#FBBEBE"/>
<path d="M178.79 98.8089C183.662 98.8089 187.611 94.8498 187.611 89.9661C187.611 85.0824 183.662 81.1234 178.79 81.1234C173.918 81.1234 169.969 85.0824 169.969 89.9661C169.969 94.8498 173.918 98.8089 178.79 98.8089Z" fill="#FBBEBE"/>
<path d="M189.028 108.441L173.277 110.02C174.733 103.45 175.086 97.3111 173.277 92.0189H184.303C183.704 96.4287 185.943 102.228 189.028 108.441Z" fill="#FBBEBE"/>
<path d="M193.439 154.234C187.553 161.331 175.185 158.958 160.99 153.918C165.018 140.738 164.394 126.833 160.774 112.461C160.577 111.689 160.658 110.871 161.004 110.153C161.35 109.435 161.938 108.863 162.664 108.538L174.222 103.388L178.632 104.336L186.193 102.441L196.926 104.641C197.798 104.821 198.578 105.307 199.124 106.013C199.669 106.719 199.944 107.598 199.899 108.489C199.002 126.13 197.414 142.455 193.439 154.234Z" fill="#FFFF00"/>
<path d="M196.589 159.919L193.754 155.181L199.109 134.969L196.274 104.651C198.103 104.835 199.827 105.596 201.195 106.826C202.564 108.056 203.507 109.69 203.889 111.493L208.19 131.821C208.838 134.885 208.449 138.078 207.084 140.896L196.589 159.919Z" fill="#FFFF00"/>
<path d="M159.73 156.445L153.272 157.55L157.39 117.137C157.43 115.121 158.062 113.161 159.206 111.502C160.351 109.843 161.958 108.559 163.826 107.81L165.873 134.496L159.73 156.445Z" fill="#FFFF00"/>
<path d="M161.046 244.867L149.159 246.96C148.619 247.055 148.064 246.98 147.568 246.745C147.176 246.56 146.836 246.28 146.576 245.932C146.317 245.584 146.147 245.177 146.081 244.747C146.015 244.317 146.055 243.878 146.198 243.467C146.341 243.057 146.582 242.688 146.9 242.392L151.992 237.669L153.32 235.344C153.693 234.67 154.226 234.099 154.872 233.68C155.517 233.262 156.255 233.009 157.021 232.943C159.291 232.786 160.04 234.517 159.566 237.77C161.29 239.041 161.562 238.846 162.723 237.135L163.25 242.496C163.19 243.078 162.942 243.624 162.544 244.052C162.147 244.48 161.621 244.766 161.046 244.867Z" fill="#2F2E41"/>
<path d="M195.385 244.867L183.498 246.96C182.958 247.055 182.402 246.98 181.907 246.745C181.515 246.56 181.174 246.28 180.915 245.932C180.655 245.584 180.485 245.177 180.419 244.747C180.353 244.317 180.394 243.878 180.536 243.467C180.679 243.057 180.921 242.688 181.239 242.392L186.331 237.669L187.659 235.344C188.032 234.67 188.565 234.099 189.21 233.68C189.856 233.262 190.594 233.009 191.36 232.943C193.63 232.786 194.379 234.517 193.904 237.77C195.629 239.041 195.901 238.846 197.062 237.135L197.589 242.496C197.529 243.078 197.281 243.624 196.883 244.052C196.485 244.48 195.959 244.766 195.385 244.867Z" fill="#2F2E41"/>
<path d="M171.787 84.9277C175.763 82.6474 179.744 84.1043 183.732 90.3264L184.547 96.9544C190.533 91.2697 190.231 83.512 183.518 80.3567C182.858 80.0466 182.219 79.6938 181.5 79.8184C180.081 79.0547 178.425 78.8628 176.869 79.2817C175.313 79.7007 173.975 80.699 173.129 82.0729C171.889 82.2882 170.111 84.7582 170.175 86.0183L171.787 84.9277Z" fill="#2F2E41"/>
<path d="M183.358 91.861C183.967 91.861 184.461 91.2247 184.461 90.4398C184.461 89.655 183.967 89.0187 183.358 89.0187C182.749 89.0187 182.255 89.655 182.255 90.4398C182.255 91.2247 182.749 91.861 183.358 91.861Z" fill="#FBBEBE"/>
<path d="M51.6975 157.906H70.0534C70.0534 159.833 69.29 161.68 67.9312 163.042C66.5723 164.404 64.7294 165.17 62.8077 165.17H58.9433C57.0216 165.17 55.1786 164.404 53.8197 163.042C52.4609 161.68 51.6975 159.833 51.6975 157.906H51.6975Z" fill="#3F3D56"/>
<path d="M74.3421 141.643V134.893C74.3421 126.737 83.191 119.022 88.9312 113.518C97.0225 105.764 101.276 95.3462 101.276 83.1426C101.276 72.4207 97.0346 62.1363 89.4823 54.5442C81.93 46.9522 71.6828 42.672 60.9874 42.6422C50.292 42.6124 40.0212 46.8353 32.4268 54.3851C24.8325 61.9349 20.5343 72.1955 20.4748 82.9173C20.4746 82.9924 20.4746 83.0675 20.4748 83.1426C20.4748 94.9103 24.9104 106.034 32.8194 113.518C38.5288 118.921 47.4085 126.653 47.4085 134.893V141.643" fill="#FFFF00"/>
<path d="M74.3424 142.591C74.2182 142.591 74.0953 142.566 73.9807 142.519C73.866 142.471 73.7618 142.401 73.6741 142.313C73.5863 142.225 73.5167 142.121 73.4692 142.006C73.4217 141.891 73.3973 141.768 73.3973 141.643V134.893C73.3973 126.958 81.2035 119.551 86.9035 114.142C87.3765 113.693 87.8364 113.257 88.2781 112.834C96.1631 105.277 100.331 95.01 100.331 83.1427C100.331 60.9634 83.0001 43.5895 60.8755 43.5895C60.8384 43.5894 60.8012 43.5894 60.7641 43.5894C50.3521 43.6011 40.3683 47.7451 32.9956 55.1153C25.6228 62.4855 21.461 72.4823 21.42 82.92V83.1407C21.42 94.7631 25.8114 105.583 33.4683 112.829C33.8562 113.197 34.2591 113.575 34.6727 113.963C40.4464 119.382 48.3537 126.803 48.3537 134.893V141.643C48.3537 141.895 48.2541 142.136 48.0769 142.313C47.8997 142.491 47.6593 142.591 47.4086 142.591C47.158 142.591 46.9176 142.491 46.7403 142.313C46.5631 142.136 46.4635 141.895 46.4635 141.643V134.893C46.4635 127.625 38.902 120.528 33.3809 115.346C32.9653 114.956 32.5606 114.576 32.1708 114.207C24.1373 106.605 19.5298 95.2823 19.5298 83.1427V82.9154C19.5932 60.1627 38.0804 41.6945 60.7613 41.6945C60.8016 41.6945 60.838 41.6945 60.8781 41.6946C66.3155 41.6663 71.7045 42.7191 76.7334 44.792C81.7623 46.865 86.3312 49.917 90.1759 53.7715C94.0207 57.626 97.0648 62.2065 99.1323 67.2479C101.2 72.2894 102.25 77.6919 102.221 83.1427C102.221 95.5399 97.8513 106.28 89.5845 114.203C89.1407 114.628 88.6783 115.067 88.2028 115.519C82.7522 120.691 75.2874 127.774 75.2874 134.893V141.643C75.2875 141.768 75.263 141.891 75.2155 142.006C75.168 142.121 75.0984 142.225 75.0107 142.313C74.9229 142.401 74.8187 142.471 74.704 142.519C74.5894 142.566 74.4665 142.591 74.3424 142.591Z" fill="#3F3D56"/>
<path d="M69.8532 154.748H51.8974C51.4797 154.748 51.079 154.582 50.7836 154.286C50.4882 153.989 50.3223 153.588 50.3223 153.169C50.3223 152.75 50.4882 152.349 50.7836 152.052C51.079 151.756 51.4797 151.59 51.8974 151.59H69.8532C70.271 151.59 70.6716 151.756 70.967 152.052C71.2624 152.349 71.4284 152.75 71.4284 153.169C71.4284 153.588 71.2624 153.989 70.967 154.286C70.6716 154.582 70.271 154.748 69.8532 154.748Z" fill="#FFFF00"/>
<path d="M19.1016 45.9209C18.7208 45.9213 18.3528 45.7829 18.0663 45.5314L4.53915 33.6943C4.38311 33.558 4.25538 33.3922 4.16329 33.2064C4.0712 33.0206 4.01654 32.8184 4.00244 32.6114C3.98834 32.4044 4.01507 32.1966 4.0811 32C4.14714 31.8034 4.25119 31.6217 4.3873 31.4654C4.52341 31.3091 4.68892 31.1812 4.87436 31.089C5.05979 30.9969 5.26153 30.9423 5.46803 30.9283C5.67453 30.9144 5.88176 30.9414 6.07785 31.0078C6.27394 31.0742 6.45506 31.1786 6.61085 31.3152L20.138 43.1523C20.3796 43.3637 20.5511 43.644 20.6295 43.9557C20.7079 44.2674 20.6895 44.5957 20.5769 44.8967C20.4642 45.1976 20.2626 45.457 19.9989 45.64C19.7353 45.823 19.4222 45.921 19.1016 45.9209H19.1016Z" fill="#E6E6E6"/>
<path d="M100.405 45.9209C100.084 45.921 99.7711 45.823 99.5074 45.64C99.2438 45.457 99.0422 45.1976 98.9295 44.8967C98.8169 44.5957 98.7985 44.2674 98.8769 43.9557C98.9553 43.644 99.1268 43.3637 99.3684 43.1523L112.895 31.3152C113.21 31.0403 113.621 30.9019 114.037 30.9304C114.454 30.9589 114.842 31.152 115.117 31.4673C115.391 31.7826 115.53 32.1943 115.502 32.6119C115.474 33.0294 115.281 33.4188 114.967 33.6943L101.44 45.5314C101.154 45.7829 100.786 45.9213 100.405 45.9209Z" fill="#E6E6E6"/>
<path d="M74.3421 149.143H47.4084C46.9907 149.143 46.59 148.977 46.2946 148.681C45.9992 148.385 45.8333 147.983 45.8333 147.564C45.8333 147.145 45.9992 146.744 46.2946 146.448C46.59 146.152 46.9907 145.985 47.4084 145.985H74.3421C74.7599 145.985 75.1606 146.152 75.456 146.448C75.7514 146.744 75.9173 147.145 75.9173 147.564C75.9173 147.983 75.7514 148.385 75.456 148.681C75.1606 148.977 74.7599 149.143 74.3421 149.143Z" fill="#FFFF00"/>
<path d="M60.8755 143.222C60.6686 143.222 60.4638 143.182 60.2727 143.102C60.0816 143.023 59.9079 142.907 59.7616 142.76C59.6154 142.613 59.4993 142.439 59.4202 142.248C59.341 142.056 59.3003 141.851 59.3003 141.643V105.643C59.3003 105.224 59.4662 104.822 59.7616 104.526C60.057 104.23 60.4577 104.064 60.8755 104.064C61.2932 104.064 61.6939 104.23 61.9893 104.526C62.2847 104.822 62.4506 105.224 62.4506 105.643V141.643C62.4506 141.851 62.4099 142.056 62.3307 142.248C62.2516 142.439 62.1355 142.613 61.9893 142.76C61.843 142.907 61.6694 143.023 61.4783 143.102C61.2871 143.182 61.0823 143.222 60.8755 143.222Z" fill="white"/>
<path d="M60.8753 107.222C55.7859 107.222 49.5374 102.606 49.2739 102.41C49.1079 102.286 48.9679 102.131 48.8618 101.953C48.7558 101.775 48.6857 101.577 48.6556 101.372C48.6256 101.167 48.6361 100.958 48.6867 100.757C48.7372 100.556 48.8268 100.367 48.9503 100.2C49.0737 100.034 49.2287 99.8936 49.4063 99.7873C49.5838 99.6809 49.7806 99.6107 49.9852 99.5806C50.1899 99.5504 50.3985 99.561 50.5991 99.6117C50.7996 99.6624 50.9883 99.7522 51.1543 99.8759C52.7197 101.04 57.5195 104.064 60.8753 104.064C64.2312 104.064 69.031 101.04 70.5972 99.8753C70.7632 99.7516 70.9519 99.6619 71.1525 99.6112C71.3531 99.5606 71.5617 99.5501 71.7663 99.5803C71.971 99.6105 72.1677 99.6808 72.3453 99.7872C72.5228 99.8936 72.6777 100.034 72.8011 100.2C72.9245 100.367 73.014 100.556 73.0645 100.757C73.115 100.958 73.1255 101.167 73.0954 101.372C73.0653 101.578 72.9951 101.775 72.889 101.953C72.7829 102.131 72.6428 102.286 72.4768 102.41C72.2133 102.606 65.9648 107.222 60.8753 107.222Z" fill="white"/>
<path d="M60.8752 30.1585C60.4575 30.1585 60.0568 29.9921 59.7614 29.696C59.466 29.3999 59.3001 28.9983 59.3 28.5795V1.57906C59.3 1.16027 59.466 0.758628 59.7614 0.462496C60.0568 0.166365 60.4575 0 60.8752 0C61.293 0 61.6936 0.166365 61.989 0.462496C62.2844 0.758628 62.4504 1.16027 62.4504 1.57906V28.5795C62.4504 28.9983 62.2844 29.3999 61.989 29.696C61.6936 29.9921 61.293 30.1585 60.8752 30.1585Z" fill="#E6E6E6"/>
</g>
<defs>
<filter id="filter0_d" x="104" y="246" width="700" height="9" filterUnits="userSpaceOnUse" color-interpolation-filters="sRGB">
<feFlood flood-opacity="0" result="BackgroundImageFix"/>
<feColorMatrix in="SourceAlpha" type="matrix" values="0 0 0 0 0 0 0 0 0 0 0 0 0 0 0 0 0 0 127 0"/>
<feOffset dy="4"/>
<feGaussianBlur stdDeviation="2"/>
<feColorMatrix type="matrix" values="0 0 0 0 0 0 0 0 0 0 0 0 0 0 0 0 0 0 0.25 0"/>
<feBlend mode="normal" in2="BackgroundImageFix" result="effect1_dropShadow"/>
<feBlend mode="normal" in="SourceGraphic" in2="effect1_dropShadow" result="shape"/>
</filter>
<filter id="filter1_d" x="0" y="0" width="215" height="255" filterUnits="userSpaceOnUse" color-interpolation-filters="sRGB">
<feFlood flood-opacity="0" result="BackgroundImageFix"/>
<feColorMatrix in="SourceAlpha" type="matrix" values="0 0 0 0 0 0 0 0 0 0 0 0 0 0 0 0 0 0 127 0"/>
<feOffset dy="4"/>
<feGaussianBlur stdDeviation="2"/>
<feColorMatrix type="matrix" values="0 0 0 0 0 0 0 0 0 0 0 0 0 0 0 0 0 0 0.25 0"/>
<feBlend mode="normal" in2="BackgroundImageFix" result="effect1_dropShadow"/>
<feBlend mode="normal" in="SourceGraphic" in2="effect1_dropShadow" result="shape"/>
</filter>
<clipPath id="clip0">
<rect width="207" height="247" fill="white" transform="translate(4)"/>
</clipPath>
</defs>
</svg>
