<svg width="27" height="27" viewBox="0 0 27 27" fill="none" xmlns="http://www.w3.org/2000/svg">
<g clip-path="url(#clip0)">
<rect width="27" height="27" rx="4" fill="white"/>
<path d="M24.5576 -8.58307e-06H2.44237C1.0935 -8.58307e-06 0 -1.34889 0 -2.46167e-05V27C0 28.3489 1.0935 27 2.44237 27H24.5576C25.9065 27 27 28.3489 27 27V-8.58307e-06C27 -1.34888 25.9065 -8.58307e-06 24.5576 -8.58307e-06ZM8.35495 23.3136C8.35495 23.7061 8.03674 24.0243 7.64418 24.0243H4.61863C4.22607 24.0243 3.90786 23.7061 3.90786 23.3136V10.6306C3.90786 10.238 4.22607 9.91981 4.61863 9.91981H7.64418C8.03674 9.91981 8.35495 10.238 8.35495 10.6306V23.3136ZM6.1314 8.72424C4.54399 8.72424 3.2571 7.43736 3.2571 5.84994C3.2571 4.26253 4.54399 2.97565 6.1314 2.97565C7.71882 2.97565 9.0057 4.26253 9.0057 5.84994C9.0057 7.43736 7.71889 8.72424 6.1314 8.72424ZM24.1664 23.3708C24.1664 23.7317 23.8738 24.0243 23.5129 24.0243H20.2663C19.9054 24.0243 19.6127 23.7317 19.6127 23.3708V17.4218C19.6127 16.5343 19.8731 13.5329 17.2935 13.5329C15.2926 13.5329 14.8868 15.5873 14.8053 16.5092V23.3708C14.8053 23.7317 14.5127 24.0243 14.1517 24.0243H11.0117C10.6508 24.0243 10.3582 23.7317 10.3582 23.3708V10.5733C10.3582 10.2124 10.6508 9.91981 11.0117 9.91981H14.1517C14.5126 9.91981 14.8053 10.2124 14.8053 10.5733V11.6798C15.5472 10.5664 16.6498 9.70699 18.9975 9.70699C24.1962 9.70699 24.1664 14.5639 24.1664 17.2325V23.3708Z" fill="#252059"/>
</g>
<defs>
<clipPath id="clip0">
<rect width="27" height="27" rx="4" fill="white"/>
</clipPath>
</defs>
</svg>
