<svg width="27" height="27" viewBox="0 0 27 27" fill="none" xmlns="http://www.w3.org/2000/svg">
<g clip-path="url(#clip0)">
<path d="M26.5706 4.88319C25.9707 5.1492 25.3479 5.35906 24.7089 5.51099C25.413 4.84191 25.9424 4.00503 26.2411 3.07092C26.3264 2.80425 26.0367 2.57365 25.7959 2.71643C24.907 3.24372 23.9494 3.63929 22.9498 3.89227C22.8918 3.90694 22.832 3.91438 22.7719 3.91438C22.5898 3.91438 22.4128 3.84678 22.2736 3.72407C21.2101 2.78674 19.8422 2.27051 18.4221 2.27051C17.8076 2.27051 17.1871 2.36629 16.578 2.55522C14.6905 3.14063 13.2342 4.69755 12.7773 6.61843C12.6059 7.33893 12.5594 8.06008 12.6392 8.76182C12.6484 8.84246 12.6103 8.89874 12.5868 8.92514C12.5455 8.97141 12.487 8.99794 12.4262 8.99794C12.4194 8.99794 12.4125 8.99761 12.4055 8.99696C8.274 8.61311 4.54835 6.62264 1.91487 3.3923C1.78058 3.22753 1.52306 3.24774 1.41602 3.43133C0.900317 4.31607 0.627786 5.32799 0.627786 6.35768C0.627786 7.93573 1.26178 9.42287 2.36303 10.507C1.89993 10.3972 1.4517 10.2243 1.03533 9.99301C0.833896 9.8811 0.586051 10.0249 0.58322 10.2553C0.554387 12.5996 1.92692 14.6856 3.98301 15.6249C3.94161 15.6259 3.9002 15.6264 3.85873 15.6264C3.53281 15.6264 3.20281 15.5949 2.87801 15.5328C2.65117 15.4895 2.46059 15.7047 2.53103 15.9246C3.1984 18.0082 4.99237 19.544 7.13917 19.8927C5.35745 21.0887 3.28259 21.7196 1.12308 21.7196L0.449851 21.7192C0.242424 21.7192 0.0669907 21.8544 0.0141301 22.0553C-0.0379404 22.2532 0.0579721 22.462 0.234854 22.5649C2.66828 23.981 5.44395 24.7295 8.263 24.7295C10.7306 24.7295 13.0388 24.2398 15.1236 23.2741C17.0348 22.3888 18.7237 21.1232 20.1434 19.5126C21.4659 18.0122 22.5001 16.2802 23.2171 14.3647C23.9006 12.5388 24.2618 10.5905 24.2618 8.73048V8.64188C24.2618 8.34321 24.3968 8.06219 24.6325 7.87089C25.5268 7.1448 26.3056 6.29008 26.9471 5.33049C27.1164 5.07712 26.8493 4.75956 26.5706 4.88319Z" fill="#252059"/>
</g>
<defs>
<clipPath id="clip0">
<rect width="27" height="27" fill="white"/>
</clipPath>
</defs>
</svg>
