<svg width="28" height="27" viewBox="0 0 28 27" fill="none" xmlns="http://www.w3.org/2000/svg">
<g clip-path="url(#clip0)">
<path d="M1.91901 13.5001C1.91901 18.0843 4.5831 22.0459 8.44624 23.9233L2.92171 8.78672C2.2791 10.2271 1.91901 11.821 1.91901 13.5001ZM21.3189 12.9156C21.3189 11.4843 20.8048 10.4931 20.3638 9.72154C19.7767 8.76755 19.2264 7.95966 19.2264 7.00566C19.2264 5.94104 20.0339 4.95002 21.1712 4.95002C21.2226 4.95002 21.2713 4.95641 21.3213 4.95928C19.2608 3.07156 16.5156 1.91901 13.5005 1.91901C9.45444 1.91901 5.89476 3.99492 3.82391 7.13921C4.09563 7.14736 4.35171 7.15309 4.56921 7.15309C5.7806 7.15309 7.65576 7.0061 7.65576 7.0061C8.28008 6.9693 8.35368 7.88627 7.73002 7.9601C7.73002 7.9601 7.10262 8.03392 6.40448 8.07051L10.622 20.6152L13.1565 13.0139L11.3521 8.07006C10.7284 8.03348 10.1376 7.95966 10.1376 7.95966C9.5135 7.92308 9.58667 6.96886 10.2108 7.00566C10.2108 7.00566 12.1234 7.15265 13.2614 7.15265C14.4726 7.15265 16.3479 7.00566 16.3479 7.00566C16.9727 6.96886 17.0461 7.88583 16.4222 7.95966C16.4222 7.95966 15.7935 8.03348 15.0967 8.07006L19.282 20.5198L20.4372 16.6595C20.9379 15.0577 21.3189 13.9071 21.3189 12.9156ZM13.7037 14.5131L10.2288 24.6104C11.2664 24.9154 12.3636 25.0822 13.5005 25.0822C14.8492 25.0822 16.1425 24.8491 17.3464 24.4257C17.3154 24.3761 17.2872 24.3235 17.264 24.2662L13.7037 14.5131ZM23.6628 7.94357C23.7126 8.31247 23.7408 8.70849 23.7408 9.13447C23.7408 10.3097 23.5213 11.6309 22.8602 13.2828L19.3225 23.511C22.7656 21.5031 25.0815 17.7729 25.0815 13.5003C25.0818 11.4867 24.5674 9.59328 23.6628 7.94357ZM13.5005 0C6.05651 0 0 6.05607 0 13.5001C0 20.9449 6.05651 27.0008 13.5005 27.0008C20.9443 27.0008 27.0016 20.9449 27.0016 13.5001C27.0014 6.05607 20.9443 0 13.5005 0ZM13.5005 26.382C6.39787 26.382 0.619028 20.6031 0.619028 13.5001C0.619028 6.39743 6.39765 0.619028 13.5005 0.619028C20.6029 0.619028 26.3813 6.39743 26.3813 13.5001C26.3813 20.6031 20.6029 26.382 13.5005 26.382Z" fill="#252059"/>
</g>
<defs>
<clipPath id="clip0">
<rect width="27.1059" height="27" fill="white"/>
</clipPath>
</defs>
</svg>
